<?xml version="1.0" standalone="no"?>
<!DOCTYPE svg PUBLIC "-//W3C//DTD SVG 20010904//EN"
 "http://www.w3.org/TR/2001/REC-SVG-20010904/DTD/svg10.dtd">
<svg version="1.0" xmlns="http://www.w3.org/2000/svg"
 width="578.000000pt" height="162.000000pt" viewBox="0 0 578.000000 162.000000"
 preserveAspectRatio="xMidYMid meet">
<metadata>
Created by potrace 1.16, written by Peter Selinger 2001-2019
</metadata>
<g transform="translate(0.000000,162.000000) scale(0.100000,-0.100000)"
fill="#000000" stroke="none">
<path d="M215 1413 c-11 -3 -28 -12 -39 -22 -45 -39 -46 -53 -46 -581 0 -535
1 -541 50 -585 22 -19 36 -20 565 -20 l543 0 26 24 c14 14 30 41 36 60 13 48
13 994 0 1042 -6 19 -22 46 -36 60 l-26 24 -526 2 c-290 0 -536 -1 -547 -4z
m809 -212 c20 -22 19 -88 -1 -83 -7 1 -13 -5 -13 -13 0 -8 4 -15 9 -15 5 0 12
-8 16 -17 15 -37 55 -189 55 -209 0 -31 -26 -48 -118 -79 -51 -16 -88 -35 -97
-48 -15 -21 -13 -23 34 -43 81 -36 108 -122 62 -199 -11 -20 -21 -38 -21 -39
0 -2 14 -6 30 -10 37 -7 39 -23 4 -36 -33 -13 -235 -13 -268 0 -37 14 -32 28
14 40 l39 11 -24 36 c-27 39 -31 73 -14 122 8 24 9 39 1 54 -6 12 -20 68 -31
125 -20 109 -31 137 -31 83 0 -99 -97 -170 -186 -136 -58 22 -88 64 -88 126 0
54 21 91 67 119 55 34 99 26 178 -31 21 -16 67 -4 71 19 2 9 -3 32 -11 50 -22
47 -8 53 126 51 62 -2 116 0 119 3 3 4 -5 21 -18 38 -22 30 -22 32 -5 45 17
12 17 13 1 17 -17 3 -17 4 0 21 23 23 78 22 100 -2z"/>
<path d="M860 989 c-36 -11 -77 -18 -92 -16 -16 2 -26 1 -23 -1 3 -3 -2 -13
-11 -23 -14 -16 -12 -24 22 -103 20 -48 40 -89 45 -91 4 -3 16 8 26 25 16 28
38 40 140 75 9 3 7 22 -7 74 -11 39 -20 73 -20 76 0 7 -8 6 -80 -16z"/>
<path d="M477 959 c-23 -13 -47 -62 -47 -95 0 -35 59 -94 94 -94 57 0 106 47
106 100 0 18 -2 18 -41 5 -51 -18 -69 -19 -69 -2 0 7 21 23 47 36 l48 23 -24
19 c-25 21 -85 25 -114 8z"/>
<path d="M851 624 c11 -25 18 -53 14 -61 -5 -13 -13 -9 -44 21 -22 21 -44 35
-50 32 -6 -4 -11 -25 -11 -47 0 -31 7 -47 29 -70 64 -63 171 -16 171 77 0 37
-59 94 -98 94 l-31 0 20 -46z"/>
<path d="M1669 971 c-23 -23 -29 -38 -29 -70 0 -37 7 -49 61 -107 52 -56 60
-69 54 -92 -4 -15 -12 -30 -18 -35 -12 -8 -47 -4 -79 8 -17 7 -35 -26 -23 -44
11 -19 91 -24 123 -7 39 20 52 44 52 96 0 37 -6 47 -60 102 -61 62 -74 94 -45
118 8 7 26 9 43 5 25 -5 30 -2 35 17 13 48 -68 54 -114 9z"/>
<path d="M1878 984 c-2 -10 -2 -98 0 -196 3 -178 3 -179 25 -176 20 3 22 10
25 69 l3 67 44 11 c56 14 77 44 77 110 -1 91 -41 131 -133 131 -27 0 -38 -5
-41 -16z"/>
<path d="M2201 983 c-56 -29 -75 -64 -79 -146 -7 -124 26 -192 104 -217 51
-17 116 16 143 74 27 56 29 175 3 225 -35 69 -109 97 -171 64z m99 -53 c29
-29 40 -63 40 -121 0 -97 -47 -154 -108 -133 -69 24 -86 185 -26 249 28 30 67
32 94 5z"/>
<path d="M2458 818 c-2 -101 -2 -189 0 -195 2 -7 15 -13 28 -13 23 0 24 3 24
75 0 41 4 75 8 75 5 0 24 -34 43 -75 32 -70 36 -74 67 -75 17 0 32 2 32 5 0 3
-18 42 -40 86 l-41 80 31 35 c21 25 30 45 30 70 0 76 -45 114 -136 114 l-42 0
-4 -182z"/>
<path d="M2720 970 c0 -28 3 -30 35 -30 l35 0 0 -165 0 -165 25 0 25 0 0 165
0 165 35 0 c32 0 35 2 35 30 l0 30 -95 0 -95 0 0 -30z"/>
<path d="M3009 971 c-27 -28 -34 -49 -29 -96 1 -11 25 -45 54 -75 63 -65 72
-85 51 -116 -18 -27 -51 -31 -82 -9 -19 14 -21 13 -27 -11 -9 -35 -2 -42 48
-49 74 -11 126 28 126 95 0 43 -21 78 -74 126 -32 28 -46 49 -46 66 0 35 23
51 58 43 25 -5 30 -2 35 17 13 48 -68 54 -114 9z"/>
<path d="M3704 985 c-11 -27 4 -45 36 -45 l30 0 0 -165 0 -165 25 0 25 0 2
163 3 162 33 3 c28 3 32 7 32 33 l0 29 -90 0 c-71 0 -92 -3 -96 -15z"/>
<path d="M3957 993 c-4 -3 -7 -91 -7 -195 l0 -188 30 0 30 0 0 75 c0 41 4 75
9 75 5 0 24 -34 42 -75 31 -71 34 -75 66 -75 37 0 38 -2 -17 109 -17 35 -27
67 -23 70 26 18 53 68 53 97 0 48 -18 81 -55 99 -33 15 -116 21 -128 8z"/>
<path d="M4300 995 c0 -3 -18 -87 -40 -186 -22 -99 -40 -182 -40 -185 0 -2 13
-4 29 -4 23 0 30 5 33 23 2 18 10 23 46 25 37 3 43 0 52 -22 7 -19 17 -26 36
-26 22 0 25 3 20 23 -3 12 -19 87 -36 167 -16 80 -32 155 -35 168 -4 17 -12
22 -35 22 -17 0 -30 -2 -30 -5z"/>
<path d="M4589 977 c-67 -45 -99 -128 -84 -220 14 -81 46 -118 118 -138 50
-13 77 -4 77 27 0 21 -5 24 -36 24 -19 0 -44 5 -56 11 -27 14 -48 68 -48 122
0 90 36 137 105 137 32 0 35 2 35 30 0 28 -2 30 -39 30 -23 0 -51 -9 -72 -23z"/>
<path d="M4764 987 c-2 -7 -3 -94 -2 -192 l3 -180 28 -3 27 -3 0 90 c0 50 3
91 8 91 4 0 23 -28 41 -62 56 -103 69 -118 102 -118 16 0 29 2 29 4 0 2 -25
48 -55 102 -63 111 -63 105 2 213 18 30 33 58 33 63 0 4 -13 8 -30 8 -26 0
-33 -8 -72 -80 -24 -44 -46 -80 -50 -80 -5 0 -8 36 -8 80 0 79 0 80 -25 80
-14 0 -28 -6 -31 -13z"/>
<path d="M5060 810 l0 -190 80 0 80 0 0 29 c0 28 -2 30 -47 33 l-48 3 -3 53
-3 52 45 0 c36 0 46 4 51 20 10 31 -2 40 -51 40 l-44 0 0 45 0 45 50 0 c49 0
50 1 50 30 l0 30 -80 0 -80 0 0 -190z"/>
<path d="M5288 994 c-5 -4 -8 -92 -8 -196 l0 -189 28 3 c26 3 27 5 32 78 l5
75 40 -77 c35 -69 43 -78 67 -78 15 0 28 4 28 10 0 5 -17 43 -37 85 l-37 75
29 30 c25 26 30 40 30 80 0 71 -33 102 -112 108 -32 2 -61 0 -65 -4z"/>
<path d="M3332 805 c-50 -102 -92 -187 -92 -190 0 -3 86 -5 190 -5 l190 0 -95
190 c-52 105 -96 190 -98 190 -1 0 -44 -83 -95 -185z m162 3 l58 -108 -86 0
c-84 0 -86 1 -74 20 9 14 24 20 51 20 l37 0 -26 52 -27 52 -38 -74 c-21 -41
-38 -78 -39 -82 0 -5 46 -8 103 -8 91 0 104 -2 115 -20 12 -20 10 -20 -138
-20 l-150 0 72 145 c40 79 75 141 79 137 3 -4 32 -55 63 -114z"/>
</g>
</svg>
